<svg width="116" height="20" viewBox="0 0 116 20" fill="none" xmlns="http://www.w3.org/2000/svg">
<path fill-rule="evenodd" clip-rule="evenodd" d="M5.82616 0V4.08743H0V12.5543H5.82616V8.46682H11.6523V0H5.82616ZM14.1062 6.7033V10.4988H7.97337V18.9656H14.1062V15.1701H19.9323V6.7033H14.1062ZM29.5896 7.42407C29.5896 6.69709 30.6199 6.10441 31.8894 6.11025C33.1589 6.11609 34.1738 6.62994 34.2566 7.71311H37.9455C37.9455 5.15555 35.2747 3.19066 31.8894 3.19066C28.5041 3.19066 25.7566 5.08547 25.7566 7.42407C25.7566 9.76266 27.6577 10.8283 32.058 11.6458C33.6311 11.9378 34.5357 12.3815 34.5357 13.2311C34.5357 13.999 33.5575 14.4953 32.2849 14.4953C31.0124 14.4953 29.8533 14.0574 29.5926 13.1173C29.5848 13.0902 29.5772 13.0652 29.5699 13.0412L29.5698 13.041C29.5371 12.9335 29.5107 12.8469 29.5006 12.6823H25.7842C25.7842 15.6165 28.5378 17.4967 31.9691 17.4967C36.0719 17.4967 38.1019 15.5493 38.1019 13.2633C38.1019 11.167 36.2069 9.80062 33.6709 9.11743C33.0545 8.95135 32.4872 8.82687 31.9841 8.71647L31.984 8.71645L31.9839 8.71644C30.5148 8.39409 29.5926 8.19176 29.5926 7.42407H29.5896ZM108.153 9.16977V9.17269V12.1244V12.285V12.2858C108.152 12.6312 108.15 13.2234 108.169 13.4528C108.218 14.0513 108.696 14.5798 109.38 14.609C109.411 14.6102 109.441 14.6115 109.469 14.6128L109.525 14.6153C109.673 14.6222 109.798 14.628 109.993 14.6236V17.2892C108.325 17.4205 107.414 17.1928 107.414 17.1928C105.259 16.7549 104.474 15.1491 104.474 13.6397V11.8558V9.82668V9.15517H102.64V6.8195H104.474V4.50134H108.153V6.8195H109.999V9.15517H108.153V9.16977ZM44.6219 9.19314V9.19606V12.1478L44.6215 12.3075C44.6206 12.6396 44.6191 13.186 44.6372 13.4149C44.6863 14.0134 45.1309 14.5097 45.8454 14.5593C46.06 14.5739 46.1888 14.5798 46.4617 14.5856V17.3125C44.8059 17.3884 43.8829 17.2162 43.8829 17.2162C41.7272 16.7782 40.9422 15.1725 40.9422 13.663V11.8792V9.85005V9.17854H39.1085V6.84286H40.9422V4.52471H44.6219V6.84286H46.4678V9.17854H44.6219V9.19314ZM69.9318 10.8314C69.5976 9.63732 68.9322 8.9483 67.9601 8.9483V8.94538C66.8409 8.94538 65.7309 10.1599 65.7309 12.0577C65.7309 13.9554 66.9268 14.9656 67.9601 14.9656C68.8157 14.9656 69.5884 14.2882 69.9318 13.1613H73.7464C73.4827 15.0152 71.5325 17.5348 67.8835 17.5348C64.5012 17.5348 61.7599 15.0561 61.7599 11.9964C61.7599 8.93662 64.5074 6.45788 67.8835 6.45788C71.2596 6.45788 73.2957 8.59211 73.7464 10.8314H69.9318ZM59.0295 9.19606V9.19314V9.17854H60.8755V6.84286H59.0295V4.52471H55.3498V6.84286H53.5161V9.17854H55.3498V9.85005V11.8792V13.663C55.3498 15.1725 56.1348 16.7782 58.2905 17.2162C58.2905 17.2162 59.2135 17.3884 60.8693 17.3125V14.5856C60.5964 14.5798 60.4676 14.5739 60.253 14.5593C59.5385 14.5097 59.0939 14.0134 59.0448 13.4149C59.0267 13.1861 59.0282 12.64 59.0292 12.3079V12.3078V12.3075L59.0295 12.1478V9.19606ZM88.2285 9.16433H94.9746V12.6688H88.2285V9.16433ZM85.7753 17.3393V17.3364H85.7783L85.7753 17.3393ZM85.7753 17.3364V11.5526C85.8335 5.56164 79.989 5.93826 78.9617 9.02427V3.32523H75.282V17.3393H78.9617V12.3672C78.9617 12.3672 78.9678 11.8709 79.0139 11.611C79.3082 9.87679 81.9913 9.90307 82.0343 11.8242C82.0649 12.9716 82.0312 17.3364 82.0312 17.3364H85.7753ZM51.9653 6.84022H48.2856V17.3508H51.9653V6.84022ZM48.2856 3.33669H51.9653V5.67299H48.2856V3.33669ZM101.107 6.82875H97.4278V17.3393H101.107V6.82875ZM97.4278 3.32523H101.107V5.66153H97.4278V3.32523Z" fill="#060001"/>
</svg>
